<mxfile modified="2020-11-12T16:31:59.836Z" host="app.diagrams.net" agent="5.0 (Macintosh; Intel Mac OS X 10_15_7) AppleWebKit/537.36 (KHTML, like Gecko) Chrome/86.0.4240.193 Safari/537.36" etag="dcYtG3G6NKk6W9xlEFyL" version="13.9.7" type="github">
  <diagram id="Ht1M8jgEwFfnCIfOTk4-" name="Page-1">
    <mxGraphModel dx="615" dy="1180" grid="1" gridSize="10" guides="1" tooltips="1" connect="1" arrows="1" fold="1" page="1" pageScale="1" pageWidth="1169" pageHeight="827" math="0" shadow="0">
      <root>
        <mxCell id="0" />
        <mxCell id="1" parent="0" />
        <mxCell id="UEzPUAAOIrF-is8g5C7q-186" value="Holodeck Account" style="points=[[0,0],[0.25,0],[0.5,0],[0.75,0],[1,0],[1,0.25],[1,0.5],[1,0.75],[1,1],[0.75,1],[0.5,1],[0.25,1],[0,1],[0,0.75],[0,0.5],[0,0.25]];outlineConnect=0;gradientColor=none;html=1;whiteSpace=wrap;fontSize=12;fontStyle=0;shape=mxgraph.aws4.group;grIcon=mxgraph.aws4.group_aws_cloud_alt;strokeColor=#232F3E;fillColor=none;verticalAlign=top;align=left;spacingLeft=30;fontColor=#232F3E;dashed=0;labelBackgroundColor=#ffffff;" parent="1" vertex="1">
          <mxGeometry x="220" y="-500" width="730" height="280" as="geometry" />
        </mxCell>
        <mxCell id="UEzPUAAOIrF-is8g5C7q-175" value="Datalake Account&amp;nbsp;" style="points=[[0,0],[0.25,0],[0.5,0],[0.75,0],[1,0],[1,0.25],[1,0.5],[1,0.75],[1,1],[0.75,1],[0.5,1],[0.25,1],[0,1],[0,0.75],[0,0.5],[0,0.25]];outlineConnect=0;gradientColor=none;html=1;whiteSpace=wrap;fontSize=12;fontStyle=0;shape=mxgraph.aws4.group;grIcon=mxgraph.aws4.group_aws_cloud_alt;strokeColor=#232F3E;fillColor=none;verticalAlign=top;align=left;spacingLeft=30;fontColor=#232F3E;dashed=0;labelBackgroundColor=#ffffff;" parent="1" vertex="1">
          <mxGeometry x="220" y="-789.5" width="730" height="189.5" as="geometry" />
        </mxCell>
        <mxCell id="UEzPUAAOIrF-is8g5C7q-195" style="edgeStyle=orthogonalEdgeStyle;rounded=0;orthogonalLoop=1;jettySize=auto;html=1;startArrow=none;startFill=0;endArrow=open;endFill=0;strokeColor=#808080;strokeWidth=2;entryX=0.189;entryY=-0.052;entryDx=0;entryDy=0;entryPerimeter=0;" parent="1" source="AYYtAIWL90G7ZKXMMEew-5" target="AYYtAIWL90G7ZKXMMEew-3" edge="1">
          <mxGeometry relative="1" as="geometry">
            <mxPoint x="429" y="-710.5" as="targetPoint" />
          </mxGeometry>
        </mxCell>
        <mxCell id="AYYtAIWL90G7ZKXMMEew-3" value="" style="aspect=fixed;html=1;points=[];align=center;image;fontSize=12;image=img/lib/mscae/Databricks.svg;" vertex="1" parent="1">
          <mxGeometry x="585" y="-413" width="68.75" height="66" as="geometry" />
        </mxCell>
        <mxCell id="AYYtAIWL90G7ZKXMMEew-4" value="&lt;span style=&quot;background-color: rgb(255 , 255 , 255)&quot;&gt;Xandr KV Silver &lt;br&gt;S3 Bucket&lt;/span&gt;" style="outlineConnect=0;fontColor=#232F3E;gradientColor=#60A337;gradientDirection=north;fillColor=#277116;strokeColor=#ffffff;dashed=0;verticalLabelPosition=bottom;verticalAlign=top;align=center;html=1;fontSize=12;fontStyle=0;aspect=fixed;shape=mxgraph.aws4.resourceIcon;resIcon=mxgraph.aws4.s3;" vertex="1" parent="1">
          <mxGeometry x="249" y="-443" width="59.57" height="59.57" as="geometry" />
        </mxCell>
        <mxCell id="AYYtAIWL90G7ZKXMMEew-5" value="&lt;span style=&quot;background-color: rgb(255 , 255 , 255)&quot;&gt;Xandr KV Bronze&lt;br&gt;S3&amp;nbsp;&lt;/span&gt;&lt;span style=&quot;background-color: rgb(255 , 255 , 255)&quot;&gt;Bucket&lt;/span&gt;" style="outlineConnect=0;fontColor=#232F3E;gradientColor=#60A337;gradientDirection=north;fillColor=#277116;strokeColor=#ffffff;dashed=0;verticalLabelPosition=bottom;verticalAlign=top;align=center;html=1;fontSize=12;fontStyle=0;aspect=fixed;shape=mxgraph.aws4.resourceIcon;resIcon=mxgraph.aws4.s3;" vertex="1" parent="1">
          <mxGeometry x="249" y="-733.75" width="78" height="78" as="geometry" />
        </mxCell>
        <mxCell id="AYYtAIWL90G7ZKXMMEew-8" style="edgeStyle=orthogonalEdgeStyle;rounded=0;orthogonalLoop=1;jettySize=auto;html=1;startArrow=none;startFill=0;endArrow=open;endFill=0;strokeColor=#808080;strokeWidth=2;" edge="1" parent="1" source="AYYtAIWL90G7ZKXMMEew-11" target="AYYtAIWL90G7ZKXMMEew-4">
          <mxGeometry relative="1" as="geometry">
            <mxPoint x="337" y="-684.7" as="sourcePoint" />
            <mxPoint x="604.4000000000001" y="-469" as="targetPoint" />
            <Array as="points">
              <mxPoint x="330" y="-395" />
              <mxPoint x="330" y="-395" />
            </Array>
          </mxGeometry>
        </mxCell>
        <mxCell id="AYYtAIWL90G7ZKXMMEew-9" style="edgeStyle=orthogonalEdgeStyle;rounded=0;orthogonalLoop=1;jettySize=auto;html=1;startArrow=none;startFill=0;endArrow=open;endFill=0;strokeColor=#808080;strokeWidth=2;entryX=0.5;entryY=0;entryDx=0;entryDy=0;" edge="1" parent="1" source="AYYtAIWL90G7ZKXMMEew-3" target="AYYtAIWL90G7ZKXMMEew-10">
          <mxGeometry relative="1" as="geometry">
            <mxPoint x="570" y="-436" as="sourcePoint" />
            <mxPoint x="619" y="-180" as="targetPoint" />
            <Array as="points" />
          </mxGeometry>
        </mxCell>
        <mxCell id="AYYtAIWL90G7ZKXMMEew-10" value="" style="shape=image;verticalLabelPosition=bottom;labelBackgroundColor=#ffffff;verticalAlign=top;aspect=fixed;imageAspect=0;image=data:image/png,iVBORw0KGgoAAAANSUhEUgAAASsAAACoCAMAAACPKThEAAAA9lBMVEX///////0ZQn0cRn38///x9PbW3eMNPncANnf///ro7u8AOXYXQ3kVP38AN3VYcZd5ja1/kKmXpbwAL3Jof6WuuMvG1tu2wdPpbx9FfJHndyT89/K8ydgbSXzDGDCRqbhOWIpAWYZdZJQxUok/YZFFYYhlj5zywJ7piFBUhJrshgCfrr2NkqzxvIXvqobYeX+Eo6vpjxv22LjqsLTwmDdtcpzAABDQTFqbsrzzqWHjdTFOVY705uXvwsT57dv44MnrZwDLACVshJwAIWk9R33ys5nooqbKPUu/AAAAG23MLT3qokX4y5/tqndmlJg8Q4Lll2ccSnSILjn0AAAJrUlEQVR4nO2aCVfjOBLHXbJ8x3biXDTENAESYNK7Cz30DMPR19wze37/L7Olw47l2E52ebOh39bvvW4rkZGlv0qlUjmWRRAEQRAEQRAEQRAEQRAEQRAEQRAEQRAEQRAEQRAEQRAEQRAEQRAEQRAEQRAEQRAEQRDESwSQfffhC4ED56TVjtwtw3134QsBSKvdkK7qbunQGtwF0qqTo6Mjrouhi1wvJ+JSfOc4zr569uLg393cBlqYu+Ua5bTAun71ivyXRmqlF50TIndLV1wKu7q+ekWGpalqJYNQ3AdVOCo+gPX66kXYFZT/7RGpVaDKYHGr7ttfilaK/XZCaAVB+ammlbSrva9BsMrJ3FcHJFKrwjkJrSZ3DlS69b/TqsNuANwhS/p70+roreL3m1tdel/tHZ8olldXuuT+kT0F3rXGwHITO9qbVvDhK8XN7Y0u/VV1S1WHrxRXy6Uu3W1p8HlLpNMbSa28PWkFwN//SXF7c6tLH3SVWIngvFagXenSpLvF53WILzzWc4KW2r1qJYxeXYW/4utvUShu3Lebv8LBRCwePGMw5zljrQ/C5v09alX0ohoziI945HlfVWunmAHH4Po971la9ewvTquLjweXlerSrrqDG7FR2dHztHrxdlWLr8C6ODhs1MraEgiKwQws4J03dbCTVnsWq1srq2JXVtDV0/9Mq82WDK3q1aVWfyAduzDGT7LAv/vqZr39NGil8gwQvnvndj1qm1ZF7A0BRlIN+11VK9GKYcZaq00JeekaoMnwoXyqiN+44UdUOTBvFz3bCH7AWV6rbn14+2HdxOYadCcT8a4icE9O/nutRPvhuJ+m6WDm5vOzBs+DWuWuvKU/DgFNuKZV0qCVGK+b9dNRP3ODoMnsgc8GI2wyC0dn8zPH0MrJVqux7rDzWpRRKnc8duuiA1daWfJcUx5qTK1gfd2uVZdv51Y48H3GWOz7Ocu9UaNWcZTEAt97U0vNFvFVXQlrtvCTKBbNpm7D7hOMz3wPG44jlvd6idEqhH6UnOkP4dAfnuPfhxkKuCFWoRWANNAiquJrrXjxnVQy1FoFxtzIe7gA7QrjK1XmlmleuEsy37YZds73WG7HDVotmG17Ed6RMJt5czMsbdYqsLJE6R95uRfN6vsPwMiP7Vg8NbIR35yB0LPZuf6LMLFZiivanQwG7qzaOycMebi85g4vEsQcLv6suDy4v9fFvx0pWzsSOeXZ6clUXB1jmBkuKMn8TPTmrGBhvGMEZ44CRJ+xgelAjK5hDaasx9Js5rqrNGK2l5qjbowZYOzjnfNs4s4+RznrhUHNyWU4QdEC6yfZIrbtpKZVr8fOdZOhL7RCX5qtxlk1z8J1mvjv+O+6+O7yQHF4f69LBx91It79x8PDycnp6QlefjAWImQ+6wlYjGLYvQJvUXWaqtOemndwI7tZq9x2lGWMUazhdLtWYcRY0ufStWUR8+suAN0CHri5zFtytNuEG1puasXFCnANV6lSCMtrmTwotPrnoeS+/A/RiYfwjeD0VF5Mp5VFNpPYOa4hpj+wuGZXaFbJSuQSsIyjZs1aMTGhYjiDWPS8WysQE5ULYxCfAo6PtmteTnSunLRzZvumZ2iwK51TrD5FClb6dvHBEmcbycXh4WVR1g7L8FfGLgtHTsEMV/wAyo/mDOIEew4Uo2ZNkVIal2cccJM87lUH1qxV6tn2ebqQpMIfueYUpIxFpXnOd9CqhfU+yNWDuU7SXhwcXKoybsIAWms0aKVVfbMpwxscDO6D5XZqnMBdP7fnukbb1aZWwq50W04P7bAaxDeuwWCOFhz5isSLouHMtIh5z47KZYBaRXWtWK+ilZe27eKFVsAfHx95KQGeBw/ujfhKvdIBGTNs7MqF0QJoraCkeps7zJneneWNTSe7tV2B5TB7q1Y4HTj8uJ8NkDdv5H/VzV5qxQytEjNoc3r2WquIdWglYlEZ63776dNjKbiKryo5Gms0/D6UWv3QGV+Js3NrLIqzlhdrEJpOK1Bbg0ObbVuDljBF25+Z7ZhrsMf8cdEAGmFkTiHOCMYMuode7KVWSyAdYBSk4vlvj4+PWrWyrJGXyJwMF+FCO51aieApyvRohAF2agVWH6Oiz2Z9g1aAvjtOebDufC3Yz9CFzotaqZVpV7iE5/oLV8VXzUMrInXgQqv197U1iFoxX7+C7k40dGq1QufuT6Ho1kaAr7TqqRMEiAjDnzScB00pAnQ4uE3IU574F4Zmo4GD0Xo0Uid/60xqVYWjP/Nw2QqjWUUykm4doZYLtVobjMhffazZlb/T+8EurQDSKLf9RTadTVejWHar3pWRiBPEDYPzJMdYqTEWNRuF6dCOo7kIYGfjLE2m9cGOhyhQ3h/PsPpfda1k1BfPZ1ycDDGE93d492JoZcHbH3+8qFbvqFWR62vRyknxcMP8JEki3Ojj5pgBQ/skwWNjHg8HG2fnjfyV2EDGQxykOOMkiReb4asloptV5MkzkO9jrGz7tV7xFI+oSZ6eMwzEhlltCTfAC6246lT9NDeKk+JnIJ24Q6/17AzylDuMGO42zPeHXrZ5T+bhqS7ykCgZTTbWaMOOIG5xR6iSF8c9PEp69b1HZCEGeBzEp3qeP4zSjerxPPITIfUwnVhBq1b88aevJT8fH6vC14/V6nA1FkwXLMpkaTxpe8uiBrNIz7P25CkEVjjL+qPRAJdMU/IEuDsV9f1strmHtOb60EtN+6N0kY4yt2mkgQUT1eqqdpLVf48PHWCXwqaUWgl/+uUbyfHx8SdZ+OWnan3461CCxzRfFn7tSksGOkPW8Ta0jGoBeMtKVS8JYfPXvS35dpErsoLAUr696dlFTG2pvOBGfdERaNkD9V2Pf1H89tuxLj2p1aKe4Yz6EgzodGncsQzB6poX1enK3t4W9IF5rdS43/vDftDUgyJx1LlNo2dpr9/6oxJepJpkfCW9FFcn0kyeZQIdVpQxQxBskWMr2/aZjvogHE/Hs6B98mF7889Bn0WEVlDaMDinD9PKDagV+nYAWKf+9kIRD+6zC0qryhfO6cnUWh/zVNy+/98+7b0DkopWIrHAhVaV4++usej/BRWtRGQl7Aoq6420WgM/f/NJn52d0zUPU52IUnkGQsCfnp6KdzjvBKen8qIcPAY20+nefwP5cijXWyBCICc1/dW+d5+XhJlKLPfBbSkYQsTrWitiG6jVyQNptRO47mazzt8tEBWg82dWRIXt2UGCIAiCIAiCIAiCIAiCIAiCIAiCIAiCIAiCIAiCIAiCIAiCIAiCIAiCIAiCIAiCIAiCQP4Nlpm0ZYfHFMcAAAAASUVORK5CYII=;" vertex="1" parent="1">
          <mxGeometry x="548.1899999999999" y="-130" width="142.38" height="80" as="geometry" />
        </mxCell>
        <mxCell id="AYYtAIWL90G7ZKXMMEew-11" value="" style="shape=image;verticalLabelPosition=bottom;labelBackgroundColor=#ffffff;verticalAlign=top;aspect=fixed;imageAspect=0;image=data:image/png,iVBORw0KGgoAAAANSUhEUgAAAPkAAADLCAMAAACbI8UEAAAAe1BMVEX///8ArdQ2NjYAq9M3NTYpKSkyMjLc3NxEQ0M0MjMsuNrV1dX4+PgAqdP5/v7k5OSrq6uWlpbx+/3o+Pvd9Pl91OliyeN6enpGwt7S8vc+PD21tbWv5PC/v7+f4O7GxsaNjY296fNRUVHv7+9lZWWioqNubm5dXV0cHBzFygdIAAANsklEQVR4nO1ciWKqOBSVVUXcUBAVqUir8/9fOFkhQC6L9rGVM9OZVkK4J8ldE5zNJkyYMGHChAkTJkyYMGHChAlO4Lqh07UUHcDxlLWmeIeu5WgfrqYpiqK5XcvROs6WQqgr564laRveWiHQvE3XorSLSNEYcyXoWpZWcfAZcUTd+lP2PUyIYyP3h9b70RKZW3/HyG2QRxOp/x0jl5g3jqhriVrCxs8Q1xTN/yORXLjOzjgKacKuZWoFRyvHG/1Yx66lagNuTskx1n/Bs52LvPG8j9/Ibby8ltNJ90c/6UHeo/FZH3v47lhy4iiSG7mRCwHiyLONu0ZxtiDi6J9Rh+8eOOUjD98jDWJOqI83knPAKWdGbrQ1Cln0JmI9ViN3sABfnk76OD3bxpVGbxnqXtdC/hNEUBAjUh9j+L6pQXycNYqgcq0TjM+z5esRIEZn5Ko8GsfoPNu5wqElGFuNAqhHSKmPq0YR1OaN1vuYjJxT17yRdHVMkVx19JYhPx4jd6wTxIjTPpoaRXlyWsTaG0m6CtUjNLhOMY5C7MGXa7mmuCGgBpo1ivAdKLeSbcRAdg0thVEYOWzepPywMm/kJkAbxTkK0KORKFVahtZGUaOA6hH8XBCQyQw/fM+djxCWMwvUDtDIDL1GITVhihich/IGQ69RANGbpvlJrAIV4QcevrsKkJcLoUrhpBRfFkP2bFA9IruFNkIjB3jrfEoiL9Fp1OMPE1A9Ir91WDgmBrQbDA5yj1aMyh2g4Xqo4Tukv8WNFMjIDTR8l5+P0GQlRmQQ5N5vkOE7aN5kbI6QZxviOQpgBWtyN+1KiQ/yXQ8wHpcfjKhtDfsPaT0CfwZ4qmANUB+aZ5NGJ8iMwcVFYBdmcEZOWo/AGyhgRBoBuxEDe8HnHQcNFm+GZOQg/1x6gt+xAKfuDyh8h8qt5ZuF0DHoAdUoYI9WqrKOD9j3wdQoNu8m3NLXHRQcybUj+Mc4Q1NeGYqCG3DDqFFswN2kynCMlO0k7AdSo5DXI+rtGEE1ikEYuY8K6NBxwUHUKNyPXtEJFKlTH8K7HkcwHql1u/xYMO6x70aOeDSZjaorOVyj+LeCfwwoDqu/bSANBvBn/Q7foSpqgwKD3EL2/lVt8HW0Bl4pArrotZGDjn81O+yE1o3MSvZ6i/F3ok/odb4ev9D2S+sUznj6auSAnXC8NXhoFHcfoEkvz3K7A3j6QVMs3w0amGaop54WYqGAncqsaZYfnmvOGV09ku76aeSqDjRra83ywnozH0F99DGSq3odDZ8HxDPvHutMPLTF2MfwHYjeijNveTWkh1516uEx6Kj2SW7UsAb334gGWwG0IwjMnOJWmSroCyl696o2kJxKZ1whZyCrvvAUPGTTr90mKKsuGQGtYsnDJw/6ZOTKXrDWCr8kf4elswemP/WqO+0gqpxh6tVy7DWvVNuhFzrh/djWARxoZvQ0+kN/yV0rXbnIasrLkf2pUUir5CRuwZJbCcgn6dedKlUrHjBy/SnEFhWSzhVKU8Igis7HA8H5HAWuZ7Hv9tX4Iigx1fC7Hj0J393MmsSsLc8No6PUbW0OUehaOIjnzUuiMnCHrh+e7awpifHCgbkXRhXp+MY5h56l8bkv+T5v8K31Phg5klFqAuua9x0D12KWD571N3fi2wEzQ2u0xINaaViCzTFkSg8ff4LC9z7UKLBhR5rtRu/E05vIw9kbbLCgSE7pwWExbIW84PDu6nMizy9T2gjIB/rg2Q4RPPybjUOweV8tgcC4lzUKCucchK7rUbjYs7+3PqHwvZfnKBxkt31LWSNoFORXBZv+ZkYQQ16I1fpXo0AWm/rq4lSRWBZ5gGYdgkWPfp2jQI5KWwPH2ljIutb8sNHMD+GFtrNryVKy4gBYbgOlb/R2RBdAvlnMKsvZrxU/qG2hwPC9H1+6E0FHg4B5R1FAVFdw5NnkTr0Hnu3oIlPegDiedk3za3J3fGD0ujdy0LH8UmDzX1l9ppB6Nq378N2hC71Z+ZW2rlF5xwDD926/dOfY9JtysiNglZdgKeC3mv89PxAR8OUhtakj7tXq2sNzFEGzL4WSUkfcq9Z8BN3clWfbhKwK9SF5pO/lCT7EvDMjJzO6xc0UyYeSu7ySoBY6NdTVCz7QKdfSgYAbosBOWr10UBJU0ksX5h14jzapxdK9hvqqQCvWYXBOLN7mQIr0JcPXiY1zpakoJSzsrbC/a5NHBs/yfVLR8H2Lb9XAd7Sfskl0HBchFLLRwDdXzueIba2AuWt6c4Y+7ivhXLZx1zrzwoFujZx7Q5oqqbqhVev6CYFP/aD40PaNezZ1JAUHV1BQCZworDHzzdFywpb52jd84Ck81/AuztkFKlVvo+18zUleF8ea7dU+3TibHUL/N4m3XpPigQWaPz9s6FDJxspvKXvbUx7xrdM3d5UiF3jFqTHxlr05fYsSmfKax1hlXfwK99bDGJcEZl6Tg9tFIO4fGnpkWFu26wGtH36cKRzCj+YdydD2qRF/Xefkah0gQ/8Gd3aOslYx53cR1q8XV8LBTu6NiUcT3pN9hvfhBF5TD9eoWN9nMAf/53gTsKhWKc/K8H/WOIboWtxfxSHwS9MZXu9ruBE7DPCtWJA1zou6FvIfwYkI+Wwyp+EtOFzvCOXHKscCfNTEw0UoXplRLMt3XeAw6diwORzPUYBPGIVBcD4fnfFp9oQJEyZMmDBhwoQPYc9XKeZx5tKqCNIgpo1taR8c/Kq9nSNs7RkEevMWuhzPt9ttVjAmQPII9IQtblQmcxEr1UygPr7vt1TE28XMw/jBvZ/I74tV0kexoWl+sYv3B8EVZPYgzV+AfNsXvnvxzIzM3UDCmuqN/nWlT3hcUBe3oiDGTt7zzdTVBKiZ8dhx7jtTzcO4Y+bf9MJX2kehoWoyqiuDXDQfALPZ9kKvA5O+N3Qi/l388GTouqqblNJNxU9YmkvcZGcUZd5DzHMNl+adCblb1mVeJJ4w3zNRjBvIXC9hHr+oEOZCVBfEXFX1JWGO1gy6rqvGKZYy12HmerYhEvI7/pi5zphvH2xkzW9oOZcy33HxDFFdBObxE3PVdbaoPmCOezFOdjPm8GpPNeaykj6/nLn9WjLxzKcwcgLzPRVyyayOhLlZwdzAoOsGPWYnMF8aKf7by5h/mfRunXRF/6Cr234kzM3TG8xvhppMjKAuKXMuvsmuEuY6l4HK/FPKfPGz2+32zwsbskWcMieXOOYy5vGVXKPzYz5oezJFX+IUyNdzGXP7xO9Hy1kYuYT5/EGH27zPROZcBgrAdlLmJl3fs+2TkiKegDI3CnNVYM7wYyYKwYfkJOgBoG9lzFeLdNGqZqoujPkVSyKKz5kXZa5kPospKxMbyubM9RxzQXLUp9xllzHfiwZEGDk+5z90SQguk+r5O8yRzpLVjwWhzM3H7srxZZczz8/5KWM+TWlIUcI8XojMzVfShDBX9ceFEU9XA1/teZlrMLcfWFt1fZXoucnMBfo/tc+lzHWBeXxRiRZemITfMiFKmF+51aEGPh05ylzlDlOwfcy2c5kNJPO8JvPZ06Q6JPNq1cx1kTkWA1E3ryemjvk7yplzzXutFmz15Zgz4qL9kMRwgDctMidGiUSGnzLHkmPij/iLOkup+sHMWYCE9JsZSoM/UWROTNKvMdd/hfkVN9Kx5PGTPmUhkQJkbnPHMJ99UXUxuJQZ5hnr8Qlz6tdM2WrX1UbMmYc0kaJdqamThVMg8xWzDs90EPjIZVb7Q5SDMtd14Xpd5jzqEiwc6wtlR495A+YrRvzbtm1KT5qxgczvBp9TOzFcdwlz8yHYMNYQmUSd4VHXwt3oraJXu31x0OGryZxJri9OCExKSa4MMU9ynRe6nT2RxpapbWdj+8p5NfRJXuZq5tsXi2Ts92K4lHkiOSl9sOUnydgg5jvxdv47GznG/EkTVF24uXkM96QxyurFrCjOtNicg8zzGXeWeZqlYT1J1mbBsQHM7ZckAeQjR5mb15VKHonyan53Y+bq4r7f70+vC1s/mYwFX+JYCcy/hc+/8szjR2ofU3ujC6Y0w1xVT0Jvc3nmmwx3krFcL8wW8ciYrfbHPdtbCXPdJFEaH1qSXHPbLqR8/90F5mIq+J1nfmNGiBsaOu86CQ6lzMXefoQsjVlXLtkzwzxZWQbz6tyriTKX5+e6MDFqoTKhM9uuZyoTAi0ikMg85iG7uTTxv+iH3lHI2DhzoT/zh7s0oTzKn7nKMLfvrF+mr6k/T0a8dh0uLX9w5sKQ55gLt8yycfvqQm+67G80cbhRl6wv8wotMue9/czu3GwnqQczmKR7oSZjUxeCCN7tmTSSqc3cVNMKZEGmauYsV7szq5uqdfxiRYScY9teikO/2y6oURQi/SuTBo8cVgWd9RQ/eeJyasjcWCbA1V3zmTxsZy4zMAXmZvYaZW6gHmiTOa4Co78MQauRUOSzXJq+VXNdoS5Q4k2leaX2MP42cEMTE8HMl3wM46exJF3890NCnpxoIPPVQsDje78SdhoeizwudKfhUvgcj/c1bfLFWojeJf5mD8ku9/hVfMr1zu4XC6639FF7epm51e03F381uxVEQ73Jmc/I5g/FNgYvcZBxiYuf4zttoclW+D3hyJ6SE0DSm23Lmm6TR9nZq7YgXbGzOVSamDBhwoQJEyZMmDCh3/gfbzwGpA00FDgAAAAASUVORK5CYII=;" vertex="1" parent="1">
          <mxGeometry x="360" y="-435.86" width="109" height="88.86" as="geometry" />
        </mxCell>
        <mxCell id="AYYtAIWL90G7ZKXMMEew-12" style="edgeStyle=orthogonalEdgeStyle;rounded=0;orthogonalLoop=1;jettySize=auto;html=1;startArrow=none;startFill=0;endArrow=open;endFill=0;strokeColor=#808080;strokeWidth=2;" edge="1" parent="1" source="AYYtAIWL90G7ZKXMMEew-3" target="AYYtAIWL90G7ZKXMMEew-11">
          <mxGeometry relative="1" as="geometry">
            <mxPoint x="560" y="-446" as="sourcePoint" />
            <mxPoint x="327" y="-446" as="targetPoint" />
            <Array as="points">
              <mxPoint x="540" y="-391" />
              <mxPoint x="540" y="-391" />
            </Array>
          </mxGeometry>
        </mxCell>
        <mxCell id="AYYtAIWL90G7ZKXMMEew-13" style="edgeStyle=orthogonalEdgeStyle;rounded=0;orthogonalLoop=1;jettySize=auto;html=1;startArrow=none;startFill=0;endArrow=open;endFill=0;strokeColor=#808080;strokeWidth=2;" edge="1" parent="1" source="AYYtAIWL90G7ZKXMMEew-4" target="AYYtAIWL90G7ZKXMMEew-11">
          <mxGeometry relative="1" as="geometry">
            <mxPoint x="569.99" y="-370.1" as="sourcePoint" />
            <mxPoint x="489" y="-370" as="targetPoint" />
            <Array as="points">
              <mxPoint x="360" y="-420" />
              <mxPoint x="360" y="-420" />
            </Array>
          </mxGeometry>
        </mxCell>
        <mxCell id="AYYtAIWL90G7ZKXMMEew-14" style="edgeStyle=orthogonalEdgeStyle;rounded=0;orthogonalLoop=1;jettySize=auto;html=1;startArrow=none;startFill=0;endArrow=open;endFill=0;strokeColor=#808080;strokeWidth=2;exitX=1;exitY=0.75;exitDx=0;exitDy=0;" edge="1" parent="1" source="AYYtAIWL90G7ZKXMMEew-11" target="AYYtAIWL90G7ZKXMMEew-3">
          <mxGeometry relative="1" as="geometry">
            <mxPoint x="337" y="-410" as="sourcePoint" />
            <mxPoint x="380" y="-410" as="targetPoint" />
            <Array as="points">
              <mxPoint x="530" y="-369" />
              <mxPoint x="530" y="-369" />
            </Array>
          </mxGeometry>
        </mxCell>
        <mxCell id="AYYtAIWL90G7ZKXMMEew-17" value="&lt;span style=&quot;background-color: rgb(255 , 255 , 255)&quot;&gt;Xandr LLD Bronze&lt;br&gt;S3&amp;nbsp;&lt;/span&gt;&lt;span style=&quot;background-color: rgb(255 , 255 , 255)&quot;&gt;Bucket&lt;/span&gt;" style="outlineConnect=0;fontColor=#232F3E;gradientColor=#60A337;gradientDirection=north;fillColor=#277116;strokeColor=#ffffff;dashed=0;verticalLabelPosition=bottom;verticalAlign=top;align=center;html=1;fontSize=12;fontStyle=0;aspect=fixed;shape=mxgraph.aws4.resourceIcon;resIcon=mxgraph.aws4.s3;" vertex="1" parent="1">
          <mxGeometry x="790" y="-733.75" width="78" height="78" as="geometry" />
        </mxCell>
        <mxCell id="AYYtAIWL90G7ZKXMMEew-19" style="edgeStyle=orthogonalEdgeStyle;rounded=0;orthogonalLoop=1;jettySize=auto;html=1;startArrow=none;startFill=0;endArrow=open;endFill=0;strokeColor=#808080;strokeWidth=2;entryX=0.815;entryY=-0.037;entryDx=0;entryDy=0;entryPerimeter=0;" edge="1" parent="1" source="AYYtAIWL90G7ZKXMMEew-17" target="AYYtAIWL90G7ZKXMMEew-3">
          <mxGeometry relative="1" as="geometry">
            <mxPoint x="337" y="-684.7" as="sourcePoint" />
            <mxPoint x="604.4000000000001" y="-463.56999999999994" as="targetPoint" />
          </mxGeometry>
        </mxCell>
        <mxCell id="AYYtAIWL90G7ZKXMMEew-20" value="&lt;span style=&quot;background-color: rgb(255 , 255 , 255)&quot;&gt;Xandr KV Silver &lt;br&gt;S3 Bucket&lt;/span&gt;" style="outlineConnect=0;fontColor=#232F3E;gradientColor=#60A337;gradientDirection=north;fillColor=#277116;strokeColor=#ffffff;dashed=0;verticalLabelPosition=bottom;verticalAlign=top;align=center;html=1;fontSize=12;fontStyle=0;aspect=fixed;shape=mxgraph.aws4.resourceIcon;resIcon=mxgraph.aws4.s3;" vertex="1" parent="1">
          <mxGeometry x="249" y="-320" width="60" height="60" as="geometry" />
        </mxCell>
        <mxCell id="AYYtAIWL90G7ZKXMMEew-21" style="edgeStyle=orthogonalEdgeStyle;rounded=0;orthogonalLoop=1;jettySize=auto;html=1;startArrow=none;startFill=0;endArrow=open;endFill=0;strokeColor=#808080;strokeWidth=2;entryX=0.5;entryY=1;entryDx=0;entryDy=0;" edge="1" parent="1" source="AYYtAIWL90G7ZKXMMEew-20" target="AYYtAIWL90G7ZKXMMEew-11">
          <mxGeometry relative="1" as="geometry">
            <mxPoint x="337" y="-410" as="sourcePoint" />
            <mxPoint x="380" y="-410" as="targetPoint" />
            <Array as="points">
              <mxPoint x="415" y="-270" />
            </Array>
          </mxGeometry>
        </mxCell>
        <mxCell id="AYYtAIWL90G7ZKXMMEew-22" style="edgeStyle=orthogonalEdgeStyle;rounded=0;orthogonalLoop=1;jettySize=auto;html=1;startArrow=none;startFill=0;endArrow=open;endFill=0;strokeColor=#808080;strokeWidth=2;" edge="1" parent="1" source="AYYtAIWL90G7ZKXMMEew-11" target="AYYtAIWL90G7ZKXMMEew-20">
          <mxGeometry relative="1" as="geometry">
            <mxPoint x="400" y="-321" as="sourcePoint" />
            <mxPoint x="337" y="-430.6" as="targetPoint" />
            <Array as="points">
              <mxPoint x="390" y="-290" />
            </Array>
          </mxGeometry>
        </mxCell>
        <mxCell id="AYYtAIWL90G7ZKXMMEew-23" value="Database" style="outlineConnect=0;fontColor=#232F3E;gradientColor=#4D72F3;gradientDirection=north;fillColor=#3334B9;strokeColor=#ffffff;dashed=0;verticalLabelPosition=bottom;verticalAlign=top;align=center;html=1;fontSize=12;fontStyle=0;aspect=fixed;shape=mxgraph.aws4.resourceIcon;resIcon=mxgraph.aws4.rds;" vertex="1" parent="1">
          <mxGeometry x="815" y="-406.5" width="53" height="53" as="geometry" />
        </mxCell>
        <mxCell id="AYYtAIWL90G7ZKXMMEew-25" style="edgeStyle=orthogonalEdgeStyle;rounded=0;orthogonalLoop=1;jettySize=auto;html=1;startArrow=none;startFill=0;endArrow=open;endFill=0;strokeColor=#808080;strokeWidth=2;" edge="1" parent="1" source="AYYtAIWL90G7ZKXMMEew-3" target="AYYtAIWL90G7ZKXMMEew-23">
          <mxGeometry relative="1" as="geometry">
            <mxPoint x="479" y="-359.21500000000003" as="sourcePoint" />
            <mxPoint x="595" y="-359.20000000000005" as="targetPoint" />
            <Array as="points" />
          </mxGeometry>
        </mxCell>
        <mxCell id="AYYtAIWL90G7ZKXMMEew-27" value="Export Data to DB" style="edgeLabel;html=1;align=center;verticalAlign=middle;resizable=0;points=[];" vertex="1" connectable="0" parent="AYYtAIWL90G7ZKXMMEew-25">
          <mxGeometry x="-0.3624" y="3" relative="1" as="geometry">
            <mxPoint x="25.25" y="-8.43" as="offset" />
          </mxGeometry>
        </mxCell>
        <mxCell id="AYYtAIWL90G7ZKXMMEew-26" style="edgeStyle=orthogonalEdgeStyle;rounded=0;orthogonalLoop=1;jettySize=auto;html=1;startArrow=none;startFill=0;endArrow=open;endFill=0;strokeColor=#808080;strokeWidth=2;entryX=1;entryY=0.25;entryDx=0;entryDy=0;" edge="1" parent="1" source="AYYtAIWL90G7ZKXMMEew-23" target="AYYtAIWL90G7ZKXMMEew-10">
          <mxGeometry relative="1" as="geometry">
            <mxPoint x="790" y="-290.5" as="sourcePoint" />
            <mxPoint x="916.25" y="-290.5" as="targetPoint" />
            <Array as="points">
              <mxPoint x="842" y="-110" />
            </Array>
          </mxGeometry>
        </mxCell>
      </root>
    </mxGraphModel>
  </diagram>
</mxfile>
